<svg xmlns="http://www.w3.org/2000/svg" width="160" height="48" viewBox="0 0 160 48" fill="none">
  <defs>
    <linearGradient id="grad" x1="0" y1="0" x2="1" y2="1">
      <stop offset="0" stop-color="#FF8A00"/>
      <stop offset="1" stop-color="#FF3D00"/>
    </linearGradient>
  </defs>
  <rect width="160" height="48" rx="10" fill="#FFF7ED"/>
  <g transform="translate(14,8)">
    <path d="M20 30c6-8-4-10 4-18 8-8 14-4 14 2 0 4-3 7-6 8 3 0 7-1 9-4-1 8-8 14-17 14-2 0-3 0-4-2z" fill="url(#grad)"/>
    <path d="M14 26c-2-5 2-10 7-12-6 1-10 6-11 11-1 4 1 7 4 9 2 1 4 1 6 0-3-1-5-3-6-8z" fill="#FDBA74"/>
    <circle cx="33" cy="12" r="2" fill="#1F2937"/>
  </g>
  <text x="72" y="30" font-family="Inter, Arial, sans-serif" font-size="18" font-weight="800" fill="#1F2937">Ludopia</text>
</svg>
